# xmcd
# 
# Track frame offsets:
#     183
#     12590
#     30828
#     45255
#     59693
#     74298
#     87250
#     104535
#     117835
#     133615
#     146593
#     162885
#     177103
#     190245
#     206820
#     219485
# 
# Disc length: 3106
# 
# Revision: 1
# Processed by: cddbd v1.5.2PL0 Copyright (c) Steve Scherf et al.
# Submitted via: fre:ac v1.0.17
# 
DISCID=e20c2010
DTITLE=Various Artist - Stars And Hits Today - Country Club USA, Volume 2
DYEAR=0
DGENRE=Country
TTITLE0=Joe Diffie - New Way (To Light Up An Old Flame)
TTITLE1=Lionel Cartwright - Leap Of Faith
TTITLE2=Pam Tillis - Don't Tell Me What To Do
TTITLE3=Diamond Rio - Mirror Mirror
TTITLE4=Marty Stuart - Tempted
TTITLE5=Alan Jackson - Don't Rock The Jukebox
TTITLE6=Ricky Van Shelton - Keep It Between The Lines
TTITLE7=Brooks and Dunn - Brand New Man
TTITLE8=Tanya Tucker - Down To My Last Teardrop
TTITLE9=Vince Gill - Liza Jane
TTITLE10=Lorrie Morgan - A Picture Of Me (Without You)
TTITLE11=Clint Black - Where Are You Now
TTITLE12=Garth Brooks - I Know One
TTITLE13=Trisha Yearwood - Like We Never Had A Broken Heart
TTITLE14=Mark Chesnutt - Your Love Is A Miracle
TTITLE15=George Strait - You Know Me Better Than That
EXTD=
EXTT0=
EXTT1=
EXTT2=
EXTT3=
EXTT4=
EXTT5=
EXTT6=
EXTT7=
EXTT8=
EXTT9=
EXTT10=
EXTT11=
EXTT12=
EXTT13=
EXTT14=
EXTT15=
PLAYORDER=
